<svg xmlns="http://www.w3.org/2000/svg" width="1024" height="1024" viewBox="0 0 512 512"><path fill="#06b609" d="M334 18c15.387 12.208 15.387 12.208 14 24-7.18 15.358-21.751 26.746-34 38l-3.3 3.078C304.334 88.988 297.776 94.57 291 100a2256.02 2256.02 0 0 0-6.125 4.938l-2.758 2.214c-2.188 1.674-2.188 1.674-3.117 3.848l2.777.363c20.242 3.052 41.62 6.964 60.223 15.637l2.941 1.246c47.547 21.612 78.674 83.824 84.457 133.152 2.616 29.766-.338 61.769-14.398 88.602l-1.84 3.844C402.996 374.937 389.18 392.193 373 409l-2.281 2.406C365.534 416.761 359.812 421.36 354 426l-2.398 1.996c-34.808 28.737-80.765 47.28-126.04 47.129l-3.486.012C162.468 475.069 105.496 440.872 70 394l-2.633-3.41C28.7 339.374 15.753 273.246 41 213c14.294-30.9 35.413-57.86 63-78l3.406-2.516C128.146 117.893 154.306 106 180 106v-2a525.528 525.528 0 0 0-6-2 375.458 375.458 0 0 1-7.875-4.313C144.623 86.127 122.851 82.694 101 95c-2.03 1.286-4.051 2.593-6 4-.868-15.21 11.361-28.37 22.938-36.875 28.574-17.639 66.236-23.364 97.062-7.938 6.853 3.879 12.57 8.126 18 13.813l3.563 3.563C242.251 78.906 251 90.38 251 100h2l1-5c5.633-11.993 12.369-23.188 20-34l2.09-2.984c4-5.607 8.238-10.979 12.64-16.274a295.472 295.472 0 0 0 4.383-5.422C316.541 6.767 316.541 6.767 334 18Z"/><path fill="#040401" d="M334 18c15.387 12.208 15.387 12.208 14 24-7.18 15.358-21.751 26.746-34 38l-3.3 3.078C304.334 88.988 297.776 94.57 291 100a2256.02 2256.02 0 0 0-6.125 4.938l-2.758 2.214c-2.188 1.674-2.188 1.674-3.117 3.848l2.777.363c20.242 3.052 41.62 6.964 60.223 15.637l2.941 1.246c47.547 21.612 78.674 83.824 84.457 133.152 2.616 29.766-.338 61.769-14.398 88.602l-1.84 3.844C402.996 374.937 389.18 392.193 373 409l-2.281 2.406C365.534 416.761 359.812 421.36 354 426l-2.398 1.996c-34.808 28.737-80.765 47.28-126.04 47.129l-3.486.012C162.468 475.069 105.496 440.872 70 394l-2.633-3.41C28.7 339.374 15.753 273.246 41 213c14.294-30.9 35.413-57.86 63-78l3.406-2.516C128.146 117.893 154.306 106 180 106v-2a525.528 525.528 0 0 0-6-2 375.458 375.458 0 0 1-7.875-4.313C144.623 86.127 122.851 82.694 101 95c-2.03 1.286-4.051 2.593-6 4-.868-15.21 11.361-28.37 22.938-36.875 28.574-17.639 66.236-23.364 97.062-7.938 6.853 3.879 12.57 8.126 18 13.813l3.563 3.563C242.251 78.906 251 90.38 251 100h2l1-5c5.633-11.993 12.369-23.188 20-34l2.09-2.984c4-5.607 8.238-10.979 12.64-16.274a295.472 295.472 0 0 0 4.383-5.422C316.541 6.767 316.541 6.767 334 18ZM59.3 209.342c-11.569 22.702-16.717 46.114-16.612 71.533l.012 4.25c.108 9.894.851 19.257 3.3 28.875l.95 3.887A377.821 377.821 0 0 0 50 329l.898 3.297C56.534 352.047 67.126 371.085 80 387l2.105 2.719c39.839 50.505 111.903 75.812 174.993 68.715 4.347-.67 8.611-1.47 12.902-2.434l3.094-.586C313.444 446.878 350.922 418.72 376 387l1.984-2.387C397.37 361.156 411.803 332.853 418 303l.633-3.027c9.358-55.335-17.706-110.327-57.57-147.66-9.17-7.477-18.21-12.657-29.063-17.313l-4.719-2.04c-5.724-2.125-11.31-3.455-17.281-4.648-10.8-2.212-10.8-2.212-13-3.312-10.347-1.748-20.523-2.271-31-2 1.51 4.533 5.014 5.538 9 8 6.024 5.5 7.665 8.684 7 17-4.014 8.182-11.072 11.39-19.844 12.293-13.838.621-28.018-4.548-36.781-15.606-2.214-5.938-3.044-11.331.75-16.687 2.93-2.038 5.43-3.119 8.875-4-59.468-44.601-151.516 38.852-175.7 85.342Z"/><path fill="#06b609" d="M234.719 76.805c7.103 9.95 13.37 22.674 12.281 35.195l-1 1c-.041 3-.042 6 0 9l-4.09-2.703c-6.473-3.878-13.278-5.896-20.472-8.047-10.22-3.172-20.267-6.548-30.188-10.563l-2.967-1.2C181.78 96.814 175.393 93.923 169 91c-22.762-9.438-43.377-12.146-67-4 8.657-21.642 33.463-31.01 54.555-35.238 29.304-4.1 58.857.91 78.164 25.043Z"/><path fill="#fcfdfc" d="m80 187 .297 2.668.453 3.52.422 3.48c.608 3.44.608 3.44 2.969 6.008C86 205 86 205 85 209c-.924 1.814-1.902 3.6-2.914 5.367l-1.797 3.163-1.914 3.345c-30.152 53.362-18.68 94.928 10.992 146.404C115.373 410.6 164.392 440.221 211 457c-37.858 9.464-97.787-34.024-122.156-58.906-33.663-36.622-51.072-85.125-38.567-134.14.748-3.057 1.29-6.097 1.785-9.204 1.51-9.262 3.827-17.906 6.938-26.75l1.465-4.324C73.315 187 73.315 187 80 187Z"/><path fill="#773e12" d="M325 19c7.492 3.641 17.387 9.485 18.375 18.375C338.412 50.459 326.428 61.152 316 70c-2.173 1.993-4.34 3.993-6.5 6-4.766 4.416-9.605 8.727-14.5 13a2087.4 2087.4 0 0 0-6 5.5 692.006 692.006 0 0 1-14 12.5c-6.896 6.131-13.669 12.39-20.41 18.691C252 128 252 128 251 128c-2.321-29.597 25.644-61.651 43-83l2.297-2.883C316.015 17.574 316.015 17.574 325 19Z"/><path fill="#fcfdfc" d="M182 174c-3.643 2.732-6.766 4.089-10.957 5.71C135.979 194.566 111.574 223.89 96 258l-1.523 3.336c-1.679 4.164-2.91 8.336-4.102 12.664-.425 1.526-.85 3.053-1.29 4.625-1.777 7.162-2.213 13.84-2.218 21.219l-.004 5.715.012 5.941-.012 5.941.004 5.715.004 5.213c.11 3.983.513 7.704 1.129 11.631.038 2.666.047 5.334 0 8-7.463-9.95-8.762-24.933-11-37l-1.063-5.25L75 301l-1.125-5.125C69.036 263.386 86.874 237.864 107 214l3.063-3.75C121.56 197.528 162.936 164.469 182 174Z"/><path fill="#fcfdfc" d="M114 158c5.667 3.778 7.83 6.856 8.375 13.75C121.388 185.565 108.802 195.1 97 201c-7.522.478-7.522.478-11-3-3.886-7.773.057-17.066 4-24 2.738-3.634 5.744-6.828 9-10l3.563-3.625c4.267-2.948 6.35-3.263 11.437-2.375Z"/><path fill="#464745" d="M325 19v3h-2l-2 4a212.897 212.897 0 0 1-4.938 5.875 366.557 366.557 0 0 0-11.5 14.063 301.972 301.972 0 0 1-11.375 13.75c-16.552 18.72-16.552 18.72-26.25 41.187C262.83 118.12 262.83 118.12 257 123l-3.313 2.813L251 128c-2.321-29.597 25.644-61.651 43-83l2.297-2.883C315.318 18.441 315.318 18.441 325 19Z"/><path fill="#773e12" d="M334 26c5.159 2.58 8.785 5.206 9.25 11.25C338.873 50.382 326.26 61.295 316 70c-2.173 1.993-4.34 3.993-6.5 6-4.766 4.416-9.605 8.727-14.5 13a2087.4 2087.4 0 0 0-6 5.5 663.855 663.855 0 0 1-14 12.5l-2.383 2.238c-2.14 1.993-4.373 3.886-6.617 5.762l-3-1 3-2.875c2.816-2.905 5.279-5.652 7.75-8.813 7.255-9.18 15.355-17.443 23.677-25.652C312.807 61.467 326.438 46.568 334 26Z"/><path fill="#fb6901" d="M203 71v2l2.984.82C223.281 78.902 235.438 93.55 245 108l2-3c.125 6.875.125 6.875-1 8-.041 3-.042 6 0 9-3-3-3-3-5.438-6.313-26.32-34.631-52-46.091-94.466-49.377C143 66 143 66 138 65c6.356-12.712 55.334 1.167 65 6Z"/><path fill="#fb6901" d="m240 128 2.813 2.5c5.818 3.474 10.598 2.612 17.226 2.09 5.167.535 6.4 1.984 8.961 6.41-1.25 6.25-2.464 7.064-8 10-10.727 1.308-21.555-2.197-30-9-1-2-1-2-1-8 4-4 4-4 10-4Z"/><path fill="#fec550" d="m173.688 50.688 3.43.014c11.608.162 23.585.519 32.882 8.298 0 4 0 4-1 5-9.252.284-16.102-1.197-24.238-5.434C176.928 55.304 168.34 54.34 160 53c3.519-3.519 8.944-2.336 13.688-2.313Z"/><path fill="#8c9c84" d="M152 83c12.082-.465 21.097 2.967 32 8l2.977 1.372 2.996 1.382 3.037 1.4c2.04.941 4.079 1.884 6.117 2.828 6.226 2.867 12.495 5.509 18.873 8.018l2 1v2c-15.86-.971-31.696-9.16-45.938-15.688-4.966-2.268-9.984-4.307-15.062-6.312-2.35-.961-4.69-1.946-7-3v-1Z"/><path fill="#e5d4b9" d="M339 334c1.671 3.342 1.277 6.338 1 10-5.121 5.121-6.816 5.544-14 5-4.659-4.659-4.776-5.697-4-12 4.649-7.283 9.445-7.533 17-3Z"/><path fill="#e5d4b9" d="M218 306c3.984 2.712 4.868 4.23 5.688 9-.884 5.142-2.222 6.402-6.688 9-5.923.919-6.57.43-11-4-1-2-1-2-1-8 3.721-5.582 6.295-6.682 13-6Z"/><path fill="#fcfdfc" d="M169 141c4.795 2.753 5.865 4.014 6.625 9.563-.697 4.946-1.981 7.115-6.625 9.437-6 0-6 0-9-3-1.386-4.158-1.298-7.642-1-12 4-4 4-4 10-4Z"/><path fill="#e5d4b9" d="M279 303c5.633 3.482 6 4.068 6 11-2.848 5.127-4.24 5.889-10.125 6.75-4.875-.75-4.875-.75-7.063-3.313-2.084-8.817 1.223-15.983 11.188-14.437Z"/><path fill="#fcfdfc" d="M142 380c4.513 3.36 5 4.194 5 10-4.64 4.64-5.722 4.785-12 4-4-4-4-4-4-10 4.407-4.407 5.104-4.93 11-4Z"/><path fill="#e5d4b9" d="M144 341c3 2 3 2 3.5 5.875-.59 4.867-1.213 5.888-5.5 8.125-6 0-6 0-9-3-.897-9.224 1.429-13.262 11-11Z"/><path fill="#fec550" d="M373 238c4 4 4 4 3.938 7.563C376 249 376 249 373 252c-5.258-.112-6.068-1.068-10-5 0-7.835 2.419-9 10-9Z"/><path fill="#e5d4b9" d="M254 390c3 4 3 4 3 10-3 4-3 4-9 4-4-4-4-4-4-9 2.954-5.908 3.031-5 10-5Z"/><path fill="#fcfdfc" d="M172 339c3.34 4.454 3.425 4.956 2 10-2.91 2.91-5.019 2.35-9 2-3.683-3.683-3.457-4.977-3-10 3.107-3.107 5.788-2.389 10-2Z"/><path fill="#fcfdfc" d="M215 306c2.163 4.326 1.13 9.48 0 14-4.5.375-4.5.375-9 0-1-2-1-2-1-8 3.06-4.59 4.411-6 10-6Z"/><path fill="#fec550" d="M177 338c1.465 7.324.267 9.733-5 15-3.25-.25-3.25-.25-6-1v-1l3.438-.688c3.835-.897 3.835-.897 4.625-4.25.208-3.238.208-3.238-2.063-6.062-4.818-.688-4.818-.688-9 1-.305 4.65-.305 4.65 1 9h-3c-1.597-10.322-1.597-10.322 1.313-13.625 6.066-3.104 8.627-2.011 14.687 1.625Z"/><path fill="#fcfdfc" d="M142 231c2 2 2 2 2 8-5 3-5 3-10 2-2-2-2-2-2-8 3.846-3.846 4.924-3.2 10-2Z"/><path fill="#e5d4b9" d="M103 353c3.407 4.543 3.789 5.732 2 11-3.375 1.125-3.375 1.125-7 1-3-3-3-3-3-9 3-3 3-3 8-3Z"/><path fill="#fcfdfc" d="M274 306c3 2 3 2 3.375 5.438C277 315 277 315 274 318c-5-1-5-1-7-4 .672-9.582.672-9.582 7-8Z"/><path fill="#fec550" d="M202 171c2.996 2.996 1.847 5.049 1 9-2 2-2 2-7 2-3-3-3-3-3-9 2.89-2.89 5.05-2.282 9-2Z"/><path fill="#fcfdfc" d="M133 306c2 3 2 3 2 8-2 2-2 2-8 2-3-3-3-3-2.875-6.063 1.617-5.428 3.577-4.997 8.875-3.937Z"/><path fill="#fcfdfc" d="M270 276c2.983 2.983 1.787 5.063 1 9-2.068 2.068-5.318 1.188-8 1-2-3-2-3-2-8 2.89-2.89 5.05-2.282 9-2Z"/><path fill="#fcfdfc" d="M135 166c3 3 3 3 2.813 6.063C137 175 137 175 135 177c-5 0-5 0-8-3 0-6.907 1.093-8 8-8Z"/><path fill="#fcfdfc" d="M180 373c2 2 2 2 2 7-3 3-3 3-9 3-2.896-2.896-2.359-5.054-2-9 3-1 3-1 9-1Z"/><path fill="#fcfdfc" d="M188 269c2 2 2 2 2.063 5.563-1.063 3.437-1.063 3.437-4.5 4.5C182 279 182 279 180 277c-.414-7.873.127-8.414 8-8Z"/><path fill="#06b609" d="M220 107c2 .33 4 .664 6 1l3 .473c7.654 1.504 10.872 3.533 15 10.527-3.787-1.228-7.514-2.559-11.25-3.938-5.19-1.9-10.44-3.523-15.75-5.062l3-1v-2Z"/><path fill="#fcfdfc" d="M209 148c2 2 2 2 2 7-3 3-3 3-8 3-2-2-2-2-2-8 2-2 2-2 8-2Z"/><path fill="#e5d4b9" d="M346 294c2 2 2 2 1 7-2 2-2 2-5.563 2-3.437-1-3.437-1-4.5-3.938.126-6.133 3.936-5.428 9.063-5.062Z"/><path fill="#fcfdfc" d="M126 149c3 3 3 3 2 8-1 1-1 1-7 1-2-2-2-2-2-8 2-2 2-2 7-1Z"/><path fill="#fcfdfc" d="M172 239c2 2 2 2 2 8-1 1-1 1-7 1-2-2-2-2-2-7 2-2 2-2 7-2Z"/></svg>
